<?xml version="1.0" standalone="no"?>
<!DOCTYPE svg PUBLIC "-//W3C//DTD SVG 20010904//EN" "http://www.w3.org/TR/2001/REC-SVG-20010904/DTD/svg10.dtd">
<svg xmlns="http://www.w3.org/2000/svg" version="1.0" width="1024" height="1024" viewBox="0 0 1024.000000 1024.000000" preserveAspectRatio="xMidYMid meet">

<g transform="translate(0.000000,1024.000000) scale(0.100000,-0.100000)" fill="#000000" stroke="none">
<path d="M3514 8434 c-243 -89 -523 -968 -524 -1643 0 -156 17 -361 44 -511 l21 -125 -82 -98 c-153 -184 -275 -423 -307 -602 l-8 -40 29 27 c47 45 144 97 227 124 43 13 80 23 81 22 2 -2 -24 -46 -57 -98 -122 -191 -187 -373 -218 -606 -13 -95 -9 -444 5 -476 6 -14 16 -6 53 45 51 70 144 170 183 198 l26 18 -18 -82 c-27 -123 -42 -380 -30 -507 16 -161 70 -410 90 -410 3 0 12 19 19 43 13 43 115 221 132 232 6 4 7 -6 2 -27 -4 -18 -7 -109 -6 -203 0 -138 4 -191 23 -280 67 -319 193 -557 408 -774 62 -63 115 -112 118 -109 2 2 -10 40 -27 84 -58 150 -88 363 -73 520 8 89 6 92 60 -78 82 -259 220 -482 422 -680 69 -68 233 -201 240 -195 1 2 -9 27 -23 56 -25 52 -65 196 -78 280 l-7 43 59 -73 c191 -240 469 -474 737 -619 l61 -33 120 71 c128 75 208 133 368 265 98 81 274 266 324 340 14 20 27 36 29 34 12 -13 -51 -266 -84 -329 -16 -33 -12 -34 25 -11 113 71 295 252 397 395 107 150 221 395 255 550 24 108 33 66 27 -129 -6 -208 -24 -310 -76 -433 l-29 -70 40 32 c236 186 431 527 500 872 21 106 30 396 14 464 -4 17 -4 32 1 32 18 0 142 -233 143 -267 0 -7 4 -13 8 -13 18 0 82 296 93 430 14 184 -9 470 -47 575 -11 31 110 -90 184 -184 63 -80 66 -83 76 -60 6 14 10 115 11 244 0 194 -3 233 -23 329 -41 192 -119 374 -219 513 -29 41 -52 78 -49 80 3 3 42 -7 88 -23 83 -29 179 -84 232 -133 l28 -26 -7 35 c-15 70 -67 217 -105 295 -52 108 -128 223 -216 327 l-73 87 14 83 c60 348 60 800 -1 1138 -63 348 -203 752 -322 927 -107 157 -207 187 -364 108 -166 -83 -416 -316 -592 -549 -78 -104 -187 -270 -235 -358 l-42 -77 -32 14 c-74 30 -244 57 -398 62 -175 6 -295 -5 -450 -43 -55 -13 -102 -24 -103 -24 -2 0 -30 44 -61 98 -134 225 -296 433 -476 608 -249 242 -436 342 -555 298z m177 -306 c124 -82 343 -310 471 -490 107 -150 208 -339 242 -455 6 -19 2 -23 -21 -28 -66 -14 -184 -60 -262 -101 -46 -24 -87 -44 -91 -44 -4 0 -11 17 -15 38 -21 117 -157 403 -267 563 -99 144 -103 149 -109 149 -18 0 -92 -246 -124 -410 -36 -186 -46 -281 -50 -517 l-3 -213 51 43 c91 77 187 123 347 167 110 30 125 24 37 -15 -153 -67 -367 -231 -519 -395 -54 -60 -84 -86 -89 -78 -14 26 -40 248 -46 388 -8 205 21 533 63 710 93 387 238 730 309 730 7 0 41 -19 76 -42z m2914 20 c34 -27 130 -222 180 -368 48 -139 110 -390 129 -520 29 -194 40 -436 28 -603 -14 -176 -33 -329 -42 -325 -3 2 -35 35 -70 73 -159 173 -312 292 -505 392 -55 29 -94 52 -87 53 23 0 166 -40 232 -66 78 -31 162 -76 213 -116 l37 -30 0 179 c0 221 -13 372 -46 530 -40 194 -108 407 -128 400 -20 -6 -149 -194 -207 -299 -56 -101 -160 -352 -174 -415 -4 -18 -8 -33 -10 -33 -2 0 -36 18 -77 40 -89 48 -207 97 -254 106 -19 3 -36 10 -39 14 -6 10 23 94 63 180 78 173 259 425 426 594 108 109 264 236 290 236 7 0 26 -10 41 -22z m-1483 -1388 c11 -36 36 -102 55 -147 l34 -81 -24 -49 c-35 -70 -58 -144 -78 -258 -9 -55 -18 -90 -18 -78 -2 58 -43 221 -76 303 l-37 92 36 78 c31 69 46 114 72 225 7 29 8 29 11 5 2 -14 13 -54 25 -90z m-617 -215 c171 -45 307 -178 366 -357 21 -63 24 -92 24 -218 0 -161 -11 -213 -70 -331 l-33 -66 39 18 c113 55 342 65 464 20 105 -38 99 -40 66 25 -63 127 -87 248 -76 389 22 277 185 482 420 526 78 15 202 6 290 -21 68 -21 135 -55 135 -68 0 -4 -21 -8 -48 -10 -26 -1 -68 -10 -94 -18 -47 -15 -146 -82 -180 -120 -17 -19 -16 -20 30 -14 197 23 382 -77 513 -278 55 -83 86 -168 96 -265 l8 -68 65 -23 c98 -34 160 -69 243 -136 154 -123 279 -317 327 -505 20 -80 37 -245 25 -245 -4 0 -16 11 -26 24 -25 32 -149 124 -224 166 -57 32 -59 33 -43 10 109 -155 144 -289 135 -511 -6 -141 -18 -212 -31 -174 -33 96 -134 264 -187 310 l-22 20 7 -20 c57 -144 59 -427 5 -640 -23 -91 -90 -259 -146 -367 l-38 -73 -2 40 c-7 113 -40 242 -93 360 -22 47 -23 48 -32 25 -33 -89 -58 -222 -58 -312 0 -267 -66 -501 -198 -703 -41 -63 -128 -165 -142 -165 -4 0 3 29 15 63 39 108 54 267 39 416 -7 59 -24 86 -24 36 0 -36 -63 -205 -103 -278 -94 -166 -249 -349 -390 -458 -49 -38 -91 -68 -93 -66 -2 2 9 28 25 58 27 49 81 223 81 259 0 8 -28 -29 -63 -81 -131 -197 -381 -499 -413 -499 -35 0 -302 327 -416 511 -32 51 -58 85 -58 77 0 -37 54 -218 80 -270 17 -32 27 -58 24 -58 -4 0 -45 31 -93 69 -224 179 -388 406 -468 649 -36 109 -38 113 -45 81 -17 -73 -11 -281 11 -373 12 -48 26 -97 32 -109 17 -33 -54 37 -108 106 -137 177 -223 441 -223 685 0 146 -11 207 -66 372 -4 11 -10 7 -21 -14 -39 -75 -79 -224 -91 -346 l-7 -74 -67 139 c-101 214 -145 371 -155 566 -6 111 9 268 32 347 l14 45 -30 -29 c-50 -48 -118 -159 -148 -240 -16 -42 -31 -73 -34 -68 -16 27 -29 176 -24 282 6 140 34 237 102 355 l45 79 -48 -27 c-62 -36 -177 -123 -225 -171 l-38 -38 6 65 c22 223 84 387 207 547 94 122 251 239 376 282 68 23 72 26 78 60 32 205 108 353 233 457 82 68 122 89 219 114 57 15 94 18 142 14 l65 -6 -40 36 c-71 64 -261 141 -296 119 -5 -3 -9 -1 -9 4 0 20 145 83 220 95 60 10 180 6 235 -8z"/>
<path d="M4172 6049 c-80 -31 -157 -114 -220 -237 l-52 -101 34 14 c20 8 37 15 39 15 3 0 7 -18 11 -41 32 -199 266 -319 456 -233 112 50 181 153 183 274 3 130 -65 239 -185 299 -53 27 -72 31 -137 30 -51 0 -93 -7 -129 -20z m167 -125 c27 -34 27 -64 0 -98 -28 -36 -83 -33 -112 6 -54 72 56 163 112 92z m-195 -113 c-12 -58 36 -145 97 -176 64 -34 158 -4 208 66 17 23 31 48 31 56 0 18 17 17 24 -3 20 -52 -15 -131 -76 -171 -33 -23 -55 -28 -114 -31 -65 -4 -79 -1 -119 22 -83 49 -120 159 -80 236 20 38 36 39 29 1z"/>
<path d="M5777 6056 c-99 -37 -175 -125 -203 -235 -28 -114 6 -223 97 -305 60 -54 121 -76 210 -76 160 0 296 109 316 255 6 49 8 50 49 35 15 -6 29 -9 31 -6 12 12 -85 172 -136 225 -79 82 -145 113 -246 118 -52 2 -93 -2 -118 -11z m158 -112 c18 -7 45 -55 45 -79 0 -24 -55 -75 -80 -75 -12 0 -35 14 -52 30 -25 26 -29 36 -24 62 11 58 56 83 111 62z m141 -139 c61 -148 -95 -299 -260 -251 -91 27 -151 115 -131 193 l7 28 20 -40 c54 -106 137 -140 235 -95 58 26 83 69 83 143 0 68 22 79 46 22z"/>
<path d="M4890 5299 c-141 -36 -211 -85 -262 -182 -20 -36 -23 -57 -23 -142 0 -89 4 -107 28 -157 28 -57 95 -128 121 -128 8 0 36 -21 63 -46 53 -51 153 -104 196 -104 l27 0 0 -78 0 -78 -57 -34 c-93 -56 -174 -79 -281 -80 -191 0 -335 87 -425 257 -71 135 -73 280 -7 422 17 35 28 66 26 68 -3 3 -38 -16 -78 -43 -100 -64 -288 -158 -373 -185 -38 -12 -74 -25 -78 -29 -9 -8 133 -75 197 -92 43 -11 46 -14 66 -72 33 -90 95 -202 153 -274 58 -72 168 -164 240 -202 l47 -25 0 -235 c0 -330 18 -387 165 -535 130 -131 246 -176 455 -177 133 -1 206 14 320 69 133 64 260 216 290 347 6 26 11 156 11 291 l0 243 84 51 c46 28 112 77 145 108 84 77 171 212 205 317 l27 84 41 6 c41 7 217 84 217 95 0 3 -46 21 -103 39 -89 28 -278 121 -409 201 l-38 23 36 -75 c93 -197 56 -399 -103 -547 -108 -102 -208 -136 -368 -127 -99 5 -166 26 -245 77 l-50 32 0 78 0 77 41 7 c63 10 133 51 174 101 21 25 43 45 50 45 22 0 95 56 119 91 59 86 71 234 28 332 -39 89 -149 167 -269 192 -102 22 -310 19 -403 -6z m388 -121 c57 -17 76 -29 126 -80 32 -32 56 -61 54 -64 -3 -2 -21 2 -41 11 -86 36 -221 27 -289 -19 l-33 -22 -46 28 c-63 40 -160 48 -246 20 -70 -22 -76 -16 -38 34 84 110 318 152 513 92z m230 -1358 c-3 -156 -4 -168 -30 -221 -144 -293 -623 -300 -765 -11 -27 56 -28 61 -31 257 -2 138 1 195 8 185 5 -8 33 -71 62 -139 41 -98 62 -135 101 -175 27 -28 45 -42 41 -31 -31 89 -54 205 -40 205 2 0 34 -9 71 -21 79 -24 137 -76 156 -139 l12 -41 15 43 c8 24 22 54 32 69 24 32 103 75 158 84 l43 7 -7 -44 c-4 -23 -15 -70 -25 -103 -25 -80 -24 -84 12 -49 44 41 72 88 103 174 15 41 39 99 54 128 l27 54 3 -34 c2 -18 2 -107 0 -198z"/>
</g>
</svg>